inDegrees=no
num_controls=7
num_derivatives=13
num_iterations=121
num_multipliers=7
num_parameters=0
num_slacks=7
num_states=26
objective=0.452950
objective_accelerations=0.049194
objective_balance=0.001076
objective_effort=0.037912
objective_height=0.359156
objective_ligament=0.005612
solver_duration=1337.145369
status=Solve_Succeeded
success=true
DataType=double
version=3
OpenSimVersion=4.5
endheader
time	/jointset/ground_pelvis/pelvis_tilt/value	/jointset/ground_pelvis/pelvis_tx/value	/jointset/ground_pelvis/pelvis_ty/value	/jointset/hip_r/hip_flexion_r/value	/jointset/hip_r/hip_adduction_r/value	/jointset/hip_r/hip_rotation_r/value	/jointset/back/lumbar_extension/value	/jointset/patellofemoral_r/patellar_flexion_r/value	/jointset/knee_r/knee_flexion_r/value	/jointset/knee_r/knee_adduction_r/value	/jointset/knee_r/knee_rotation_r/value	/jointset/ankle_r/ankle_angle_r/value	/jointset/subtalar_r/subtalar_angle_r/value	/jointset/ground_pelvis/pelvis_tilt/speed	/jointset/ground_pelvis/pelvis_tx/speed	/jointset/ground_pelvis/pelvis_ty/speed	/jointset/hip_r/hip_flexion_r/speed	/jointset/hip_r/hip_adduction_r/speed	/jointset/hip_r/hip_rotation_r/speed	/jointset/back/lumbar_extension/speed	/jointset/patellofemoral_r/patellar_flexion_r/speed	/jointset/knee_r/knee_flexion_r/speed	/jointset/knee_r/knee_adduction_r/speed	/jointset/knee_r/knee_rotation_r/speed	/jointset/ankle_r/ankle_angle_r/speed	/jointset/subtalar_r/subtalar_angle_r/speed	/forceset/tau_hip_flexion_r	/forceset/tau_hip_adduction_r	/forceset/tau_hip_rotation_r	/forceset/tau_knee_flexion_r	/forceset/tau_ankle_angle_r	/forceset/tau_subtalar_angle_r	/forceset/tau_lumbar_extension	lambda_cid13_p0	lambda_cid14_p0	lambda_cid14_p1	lambda_cid14_p2	lambda_cid14_p3	lambda_cid14_p4	lambda_cid14_p5	/jointset/ground_pelvis/pelvis_tilt/accel	/jointset/ground_pelvis/pelvis_tx/accel	/jointset/ground_pelvis/pelvis_ty/accel	/jointset/hip_r/hip_flexion_r/accel	/jointset/hip_r/hip_adduction_r/accel	/jointset/hip_r/hip_rotation_r/accel	/jointset/back/lumbar_extension/accel	/jointset/patellofemoral_r/patellar_flexion_r/accel	/jointset/knee_r/knee_flexion_r/accel	/jointset/knee_r/knee_adduction_r/accel	/jointset/knee_r/knee_rotation_r/accel	/jointset/ankle_r/ankle_angle_r/accel	/jointset/subtalar_r/subtalar_angle_r/accel	gamma_cid13_p0	gamma_cid14_p0	gamma_cid14_p1	gamma_cid14_p2	gamma_cid14_p3	gamma_cid14_p4	gamma_cid14_p5
0.5	-0.1320896324605689	0.02130214904935189	0.8031288281294898	0.901223839608489	-0.2180685102159169	-0.136201503413774	-0.6504163007688765	0.9700021342403488	0.9700021342401529	-0.07331206271714068	0.174532785203082	0.2973388967716057	0.1474256587432488	-0.3569010437751863	-0.2060468936355339	-0.516416195216192	1.889179062182791	-0.04169986226366715	0.1970729448639302	-0.7329343821441833	1.964861493919867	1.964861493920095	-0.4082695324324555	-3.275282122032701e-05	0.5307304570364582	0.1516312325075258	-0.1953987355343502	0.005510041291036364	0.01733020257689157	-0.2982370182616648	0.009861502762488924	0.002988577270341118	0.2400172517995349	-7.840718135433038	-39.28582830279976	-4.828218294276737	0.3321401178969196	-4.205292804084639	-641.956283748706	65.17450573214208	0.359114463639854	0.6084839853799245	-0.4154414328229281	-1.305175521940103	-0.1866805280527307	-0.4361495224058077	1.868886028986379	-1.403322319047457	-1.403322319047324	0.5491888562053272	-0.04020893550932091	-0.627091209421506	-0.396283270704939	-7.071717790887607e-08	9.713460271423019e-08	1.773087044026174e-06	4.101807807430431e-07	-2.296455650455442e-07	-1.40781024666215e-07	1.205362400548606e-06
0.51	-0.1356399520634746	0.01927233288913878	0.7979451182502575	0.9200474105806339	-0.2184951350354905	-0.1342544671922179	-0.6576515374640931	0.9895774338495952	0.989577433849318	-0.07736753287259135	0.1745324765202142	0.302613859296976	0.1489211825540802	-0.3531063953012211	-0.1998941074629965	-0.520206322151556	1.875271318780694	-0.04361664294286254	0.1923585414444876	-0.7140239586961735	1.949928413563942	1.949928413564017	-0.4027662014408137	-2.85093307270611e-05	0.5241868300356419	0.1474384101977456	-0.2016385242537743	0.005924010846583581	0.01770699244188051	-0.3038386676565412	0.009599158109176104	0.003489293166170963	0.2459758068800769	-6.910460022849277	-39.68523958458947	-4.834907480240346	0.5093578075279092	-4.340096500366141	-647.1676153779308	65.83460825782353	0.3981285107456724	0.6219621790483936	-0.3429059530119861	-1.47312845794606	-0.1927336041855795	-0.485538429029457	1.915470233143971	-1.578790301808368	-1.578790301831281	0.5598948971369698	0.02096401182176057	-0.6793329436325872	-0.4357053982689206	-5.834672553320306e-08	1.178449606820263e-07	1.786796995209324e-06	5.449833519520651e-07	-2.426514120473547e-07	-1.267434939991057e-07	1.24689358490564e-06
0.52	-0.1391506274873466	0.01730470183982261	0.7927270855758476	0.9387239931770375	-0.2189406390151226	-0.1323538655403192	-0.6646949999787424	1.008995304773694	1.008995304773333	-0.08136617178282704	0.174532254876347	0.307821118652694	0.150373793404383	-0.3489722079684238	-0.1936098714561472	-0.5232807542516749	1.859781387034536	-0.04547569427536385	0.1877860309324063	-0.6945795460307364	1.933375756890283	1.933375756890206	-0.3969032833894374	-1.534502050909442e-05	0.5171898231059892	0.1430486404017908	-0.2078783129731983	0.006337980402131823	0.01808378230686325	-0.3094403170514183	0.00933681345586344	0.003990009062002579	0.2519343619606191	-6.041960788941417	-40.08148949142922	-4.832856722369017	0.6758324658490193	-4.505710620749423	-652.3561871720188	66.52110394985299	0.4270222354062444	0.6347739522423219	-0.2723024657739114	-1.621613190752203	-0.1751346587139249	-0.4077709409335414	1.97568387247184	-1.727237582594155	-1.727237582594077	0.6211062681522124	-0.03842477156436882	-0.7177671951888253	-0.4356727679398643	-4.746140271618761e-08	1.288875979038421e-07	1.741281018267289e-06	6.087598192868849e-07	-2.440102781526352e-07	-1.161138253205636e-07	1.253766645123795e-06
0.53	-0.1426183148148221	0.01540043669443493	0.7874819037738232	0.9572380073674965	-0.2194043659089899	-0.1304982599013987	-0.6715415388039129	1.028239703673046	1.028239703672519	-0.08530457060239485	0.1745321157366376	0.3129561443284589	0.1517816193109273	-0.3445109476583508	-0.1872337966499162	-0.5256337105322353	1.842774097995451	-0.04725783140741236	0.1833662723680838	-0.674660680748283	1.915245468541391	1.915245468541248	-0.3907159003489148	-1.27954473261434e-05	0.5097374720719964	0.1384838801449687	-0.2141188225830696	0.007164001788805814	0.0183525919203212	-0.3147840711664595	0.008518296498234925	0.004267427873336399	0.2577912963293468	-5.235634976215096	-40.68481984723365	-4.973846210029489	0.8763089174414999	-4.378272984656628	-657.56847685634	66.88306310705079	0.4638435220851441	0.6403794457417666	-0.1985299721640158	-1.777369164200225	-0.1777970148663409	-0.454467490678573	2.010118594387845	-1.894699278088388	-1.894699278098314	0.6268663394209665	0.0197276250646244	-0.7706910654145182	-0.4714319696754	-3.783985379905963e-08	1.378913555709474e-07	1.686035027263261e-06	6.531497241091396e-07	-2.443535657259511e-07	-1.047068664027827e-07	1.252431243493259e-06
